<?xml version="1.0" encoding="UTF-8"?>
<!DOCTYPE svg PUBLIC "-//W3C//DTD SVG 1.1//EN" "http://www.w3.org/Graphics/SVG/1.1/DTD/svg11.dtd">
<svg xmlns="http://www.w3.org/2000/svg" version="1.1" width="403px" height="257px" style="shape-rendering:geometricPrecision; text-rendering:geometricPrecision; image-rendering:optimizeQuality; fill-rule:evenodd; clip-rule:evenodd" xmlns:xlink="http://www.w3.org/1999/xlink">
<g><path style="opacity:0.981" fill="#b25e7f" d="M 173.5,68.5 C 173.351,69.552 173.517,70.552 174,71.5C 176.666,74.1761 178.833,77.1761 180.5,80.5C 179.761,80.369 179.094,80.5357 178.5,81C 179.582,82.3297 180.249,83.8297 180.5,85.5C 173.025,76.5628 166.025,67.2295 159.5,57.5C 159.5,56.8333 159.5,56.1667 159.5,55.5C 160.573,54.7494 160.74,53.7494 160,52.5C 158.483,50.7605 156.983,49.0938 155.5,47.5C 155.158,46.6618 154.492,46.3284 153.5,46.5C 154.405,44.1925 155.738,44.1925 157.5,46.5C 163.27,53.5898 168.603,60.9232 173.5,68.5 Z"/></g>
<g><path style="opacity:0.953" fill="#a23362" d="M 155.5,47.5 C 156.983,49.0938 158.483,50.7605 160,52.5C 160.74,53.7494 160.573,54.7494 159.5,55.5C 158.85,55.1961 158.183,54.8627 157.5,54.5C 156.336,61.4763 156.169,68.4763 157,75.5C 157.608,77.0664 158.442,78.3998 159.5,79.5C 159.737,80.791 159.404,81.791 158.5,82.5C 157.504,95.9898 157.171,109.656 157.5,123.5C 156.833,135.673 156.167,148.007 155.5,160.5C 154.17,122.669 154.17,85.0022 155.5,47.5 Z"/></g>
<g><path style="opacity:0.999" fill="#93395d" d="M 245.5,46.5 C 247.494,84.4855 248.161,122.819 247.5,161.5C 245.821,161.715 244.821,161.048 244.5,159.5C 245.833,141.179 246.5,122.512 246.5,103.5C 246.167,84.8333 245.833,66.1667 245.5,47.5C 244.712,48.7701 243.712,49.7701 242.5,50.5C 242.554,48.368 243.554,47.0347 245.5,46.5 Z"/></g>
<g><path style="opacity:0.035" fill="#fde3f7" d="M 243.5,56.5 C 243.5,74.8333 243.5,93.1667 243.5,111.5C 242.668,94.6716 242.168,77.6716 242,60.5C 241.617,61.056 241.117,61.3893 240.5,61.5C 240.5,60.5 240.5,59.5 240.5,58.5C 241.5,57.8333 242.5,57.1667 243.5,56.5 Z"/></g>
<g><path style="opacity:0.051" fill="#cc91a8" d="M 159.5,55.5 C 159.5,56.1667 159.5,56.8333 159.5,57.5C 157.98,64.8233 158.313,72.1566 160.5,79.5C 160.167,79.5 159.833,79.5 159.5,79.5C 158.442,78.3998 157.608,77.0664 157,75.5C 156.169,68.4763 156.336,61.4763 157.5,54.5C 158.183,54.8627 158.85,55.1961 159.5,55.5 Z"/></g>
<g><path style="opacity:0.027" fill="#c888a4" d="M 173.5,68.5 C 182.464,79.07 190.964,90.07 199,101.5C 199.816,102.823 200.983,103.489 202.5,103.5C 202.189,104.478 201.522,105.145 200.5,105.5C 194.054,96.9145 187.388,88.5811 180.5,80.5C 178.833,77.1761 176.666,74.1761 174,71.5C 173.517,70.552 173.351,69.552 173.5,68.5 Z"/></g>
<g><path style="opacity:0.998" fill="#aa4c71" d="M 242.5,50.5 C 242.278,52.6075 241.278,54.2742 239.5,55.5C 240.127,56.4168 240.461,57.4168 240.5,58.5C 240.5,59.5 240.5,60.5 240.5,61.5C 238.983,61.5106 237.816,62.1772 237,63.5C 228.056,75.7485 218.889,87.7485 209.5,99.5C 208.624,99.6309 207.957,99.2975 207.5,98.5C 210.315,95.6787 212.315,92.3454 213.5,88.5C 222.693,75.435 232.36,62.7683 242.5,50.5 Z"/></g>
<g><path style="opacity:0.243" fill="#cd89ad" d="M 243.5,111.5 C 243.5,93.1667 243.5,74.8333 243.5,56.5C 244.498,90.6626 244.832,124.996 244.5,159.5C 244.821,161.048 245.821,161.715 247.5,161.5C 248.161,122.819 247.494,84.4855 245.5,46.5C 246.183,44.8235 247.517,44.1568 249.5,44.5C 249.667,83.5014 249.5,122.501 249,161.5C 247.301,162.406 245.467,162.739 243.5,162.5C 243.5,145.5 243.5,128.5 243.5,111.5 Z"/></g>
<g><path style="opacity:0.378" fill="#a05073" d="M 153.5,46.5 C 154.492,46.3284 155.158,46.6618 155.5,47.5C 154.17,85.0022 154.17,122.669 155.5,160.5C 156.167,148.007 156.833,135.673 157.5,123.5C 157.175,131.352 157.508,139.018 158.5,146.5C 158.5,151.833 158.5,157.167 158.5,162.5C 156.833,162.5 155.167,162.5 153.5,162.5C 153.5,123.833 153.5,85.1667 153.5,46.5 Z"/></g>
<g><path style="opacity:0.996" fill="#a94c70" d="M 159.5,79.5 C 159.833,79.5 160.167,79.5 160.5,79.5C 162.167,80.5 163.5,81.8333 164.5,83.5C 163.957,83.56 163.624,83.8933 163.5,84.5C 169.288,91.9103 174.955,99.4103 180.5,107C 179.756,108.039 178.756,108.539 177.5,108.5C 171.075,101.743 165.408,94.4098 160.5,86.5C 159.833,85.1667 159.167,83.8333 158.5,82.5C 159.404,81.791 159.737,80.791 159.5,79.5 Z"/></g>
<g><path style="opacity:0.059" fill="#c587a0" d="M 240.5,61.5 C 225.342,81.8036 210.176,102.137 195,122.5C 192.379,125.14 189.879,125.14 187.5,122.5C 189.239,123.434 190.905,123.434 192.5,122.5C 198.42,114.982 204.086,107.315 209.5,99.5C 218.889,87.7485 228.056,75.7485 237,63.5C 237.816,62.1772 238.983,61.5106 240.5,61.5 Z"/></g>
<g><path style="opacity:0.976" fill="#ab5174" d="M 180.5,80.5 C 187.388,88.5811 194.054,96.9145 200.5,105.5C 201.522,105.145 202.189,104.478 202.5,103.5C 205.436,97.9586 209.103,92.9586 213.5,88.5C 212.315,92.3454 210.315,95.6787 207.5,98.5C 207.957,99.2975 208.624,99.6309 209.5,99.5C 204.086,107.315 198.42,114.982 192.5,122.5C 190.905,123.434 189.239,123.434 187.5,122.5C 186.167,120.5 184.833,118.5 183.5,116.5C 183.249,114.83 182.582,113.33 181.5,112C 183.197,111.616 184.863,111.782 186.5,112.5C 187.932,114.327 189.599,115.994 191.5,117.5C 193.735,114.709 195.735,111.709 197.5,108.5C 191.423,101.096 185.756,93.4298 180.5,85.5C 180.249,83.8297 179.582,82.3297 178.5,81C 179.094,80.5357 179.761,80.369 180.5,80.5 Z"/></g>
<g><path style="opacity:0.997" fill="#c07193" d="M 164.5,83.5 C 171.833,93.1667 179.167,102.833 186.5,112.5C 184.863,111.782 183.197,111.616 181.5,112C 182.582,113.33 183.249,114.83 183.5,116.5C 181.147,114.14 179.147,111.473 177.5,108.5C 178.756,108.539 179.756,108.039 180.5,107C 174.955,99.4103 169.288,91.9103 163.5,84.5C 163.624,83.8933 163.957,83.56 164.5,83.5 Z"/></g>
<g><path style="opacity:1" fill="#a43463" d="M 244.5,159.5 C 244.832,124.996 244.498,90.6626 243.5,56.5C 242.5,57.1667 241.5,57.8333 240.5,58.5C 240.461,57.4168 240.127,56.4168 239.5,55.5C 241.278,54.2742 242.278,52.6075 242.5,50.5C 243.712,49.7701 244.712,48.7701 245.5,47.5C 245.833,66.1667 246.167,84.8333 246.5,103.5C 246.5,122.512 245.833,141.179 244.5,159.5 Z"/></g>
<g><path style="opacity:0.171" fill="#d8a1b7" d="M 158.5,82.5 C 159.167,83.8333 159.833,85.1667 160.5,86.5C 159.822,106.402 159.155,126.402 158.5,146.5C 157.508,139.018 157.175,131.352 157.5,123.5C 157.171,109.656 157.504,95.9898 158.5,82.5 Z"/></g>
<g><path style="opacity:0.059" fill="#b998b0" d="M 233.5,177.5 C 225.414,177.199 217.414,177.533 209.5,178.5C 208.262,178.19 208.262,177.69 209.5,177C 217.677,176.177 225.677,176.344 233.5,177.5 Z"/></g>
<g><path style="opacity:0.557" fill="#9e7b9a" d="M 290.5,192.5 C 289.833,195.833 289.167,199.167 288.5,202.5C 286.876,202.64 285.71,201.973 285,200.5C 284.147,196.531 283.481,192.531 283,188.5C 281.382,185.709 280.215,182.709 279.5,179.5C 279.167,179.167 278.833,178.833 278.5,178.5C 277.548,180.045 277.215,181.712 277.5,183.5C 276.532,181.393 276.198,179.059 276.5,176.5C 279.48,176.241 281.313,177.574 282,180.5C 283.823,186.79 285.489,193.123 287,199.5C 288.021,197.03 289.188,194.696 290.5,192.5 Z"/></g>
<g><path style="opacity:0.157" fill="#ccacc7" d="M 244.5,177.5 C 251.982,176.508 259.648,176.175 267.5,176.5C 267.5,178.167 267.5,179.833 267.5,181.5C 261.5,181.5 255.5,181.5 249.5,181.5C 254.068,180.5 259.401,180.167 265.5,180.5C 265.5,179.5 265.5,178.5 265.5,177.5C 258.833,177.5 252.167,177.5 245.5,177.5C 245.167,177.5 244.833,177.5 244.5,177.5 Z"/></g>
<g><path style="opacity:0.031" fill="#b090ae" d="M 233.5,178.5 C 234.774,179.189 234.774,180.023 233.5,181C 230.518,181.498 227.518,181.665 224.5,181.5C 224.5,190.167 224.5,198.833 224.5,207.5C 223.507,198.682 223.173,189.682 223.5,180.5C 227.179,180.94 230.512,180.273 233.5,178.5 Z"/></g>
<g><path style="opacity:0.996" fill="#77436c" d="M 288.5,202.5 C 287.801,204.995 286.801,207.328 285.5,209.5C 286.552,209.649 287.552,209.483 288.5,209C 289.615,206.869 290.948,205.035 292.5,203.5C 291.991,206.192 290.991,208.692 289.5,211C 287.559,211.743 285.726,211.576 284,210.5C 281.247,201.655 279.081,192.655 277.5,183.5C 277.215,181.712 277.548,180.045 278.5,178.5C 278.833,178.833 279.167,179.167 279.5,179.5C 280.215,182.709 281.382,185.709 283,188.5C 283.481,192.531 284.147,196.531 285,200.5C 285.71,201.973 286.876,202.64 288.5,202.5 Z"/></g>
<g><path style="opacity:0.035" fill="#a1789c" d="M 150.5,177.5 C 164.054,183.082 167.221,192.415 160,205.5C 158.871,207.141 157.371,208.141 155.5,208.5C 155.715,206.821 155.048,205.821 153.5,205.5C 154.167,204.167 155.167,203.167 156.5,202.5C 156.281,203.675 156.614,204.675 157.5,205.5C 164.649,193.709 162.316,184.376 150.5,177.5 Z"/></g>
<g><path style="opacity:0.987" fill="#77446f" d="M 150.5,177.5 C 162.316,184.376 164.649,193.709 157.5,205.5C 156.614,204.675 156.281,203.675 156.5,202.5C 160.538,192.598 157.872,185.265 148.5,180.5C 145.657,179.313 142.657,179.313 139.5,180.5C 138.287,180.253 137.62,179.586 137.5,178.5C 141.726,176.297 146.059,175.964 150.5,177.5 Z"/></g>
<g><path style="opacity:0.047" fill="#e8dee6" d="M 209.5,180.5 C 212.833,180.5 216.167,180.5 219.5,180.5C 219.5,189.5 219.5,198.5 219.5,207.5C 219.167,207.5 218.833,207.5 218.5,207.5C 218.5,198.833 218.5,190.167 218.5,181.5C 215.287,181.81 212.287,181.477 209.5,180.5 Z"/></g>
<g><path style="opacity:0.996" fill="#7e4e77" d="M 102.5,200.5 C 104.101,199.357 104.767,200.024 104.5,202.5C 103.996,205.515 102.496,207.848 100,209.5C 98.6494,207.982 97.1494,206.649 95.5,205.5C 92.8692,200.799 90.7025,195.799 89,190.5C 88.6667,197.167 88.3333,203.833 88,210.5C 86.6439,211.38 85.1439,211.714 83.5,211.5C 83.5,199.833 83.5,188.167 83.5,176.5C 85.4672,176.261 87.3005,176.594 89,177.5C 93.0473,185.633 96.7139,193.966 100,202.5C 100.708,201.619 101.542,200.953 102.5,200.5 Z"/></g>
<g><path style="opacity:0.807" fill="#632d5a" d="M 233.5,177.5 C 233.5,177.833 233.5,178.167 233.5,178.5C 230.512,180.273 227.179,180.94 223.5,180.5C 222.507,189.318 222.173,198.318 222.5,207.5C 221.5,207.5 220.5,207.5 219.5,207.5C 219.5,198.5 219.5,189.5 219.5,180.5C 216.167,180.5 212.833,180.5 209.5,180.5C 209.5,179.833 209.5,179.167 209.5,178.5C 217.414,177.533 225.414,177.199 233.5,177.5 Z"/></g>
<g><path style="opacity:0.941" fill="#642b5b" d="M 245.5,177.5 C 252.167,177.5 258.833,177.5 265.5,177.5C 265.5,178.5 265.5,179.5 265.5,180.5C 259.401,180.167 254.068,180.5 249.5,181.5C 249.5,184.833 249.5,188.167 249.5,191.5C 253.742,192.357 258.742,192.857 264.5,193C 259.167,193.333 253.833,193.667 248.5,194C 247.703,197.745 247.203,201.579 247,205.5C 246.821,201.975 246.321,198.641 245.5,195.5C 245.5,189.5 245.5,183.5 245.5,177.5 Z"/></g>
<g><path style="opacity:0.506" fill="#a786a4" d="M 294.5,180.5 C 293.744,184.767 292.411,188.767 290.5,192.5C 290.861,188.085 292.194,184.085 294.5,180.5 Z"/></g>
<g><path style="opacity:0.702" fill="#997394" d="M 308.5,200.5 C 308.128,202.656 307.128,202.656 305.5,200.5C 304.197,195.583 302.53,190.916 300.5,186.5C 300.127,183.426 299.461,180.426 298.5,177.5C 297.5,177.5 296.5,177.5 295.5,177.5C 295.737,178.791 295.404,179.791 294.5,180.5C 294.5,179.167 294.5,177.833 294.5,176.5C 296.467,176.261 298.301,176.594 300,177.5C 302.695,185.327 305.529,192.993 308.5,200.5 Z"/></g>
<g><path style="opacity:1" fill="#622159" d="M 84.5,178.5 C 85.5,178.5 86.5,178.5 87.5,178.5C 87.2606,180.467 87.5939,182.301 88.5,184C 88,184.5 87.5,185 87,185.5C 86.8315,193.188 86.3315,200.855 85.5,208.5C 84.5015,198.522 84.1681,188.522 84.5,178.5 Z"/></g>
<g><path style="opacity:0.978" fill="#683462" d="M 134.5,180.5 C 135.376,180.369 136.043,180.702 136.5,181.5C 130.954,187.17 129.121,193.837 131,201.5C 130.617,200.944 130.117,200.611 129.5,200.5C 128.833,200.5 128.5,200.167 128.5,199.5C 128.467,195.131 128.8,190.798 129.5,186.5C 130.419,183.911 132.086,181.911 134.5,180.5 Z"/></g>
<g><path style="opacity:0.965" fill="#753f6a" d="M 177.5,195.5 C 175.589,191.767 174.256,187.767 173.5,183.5C 172.481,181.46 172.481,179.46 173.5,177.5C 176.618,183.187 178.952,189.187 180.5,195.5C 179.5,195.5 178.5,195.5 177.5,195.5 Z"/></g>
<g><path style="opacity:0.969" fill="#672c5e" d="M 300.5,186.5 C 300.062,187.506 299.396,187.506 298.5,186.5C 297.778,186.082 297.278,185.416 297,184.5C 294.254,190.15 292.754,196.15 292.5,202.5C 292.5,202.833 292.5,203.167 292.5,203.5C 290.948,205.035 289.615,206.869 288.5,209C 287.552,209.483 286.552,209.649 285.5,209.5C 286.801,207.328 287.801,204.995 288.5,202.5C 289.167,199.167 289.833,195.833 290.5,192.5C 292.411,188.767 293.744,184.767 294.5,180.5C 295.404,179.791 295.737,178.791 295.5,177.5C 296.5,177.5 297.5,177.5 298.5,177.5C 299.461,180.426 300.127,183.426 300.5,186.5 Z"/></g>
<g><path style="opacity:1" fill="#8a5b7f" d="M 304.5,209.5 C 306.01,210.728 307.51,210.728 309,209.5C 311.296,204.026 312.296,198.359 312,192.5C 310.281,195.025 309.114,197.692 308.5,200.5C 309.299,192.328 311.299,184.494 314.5,177C 315.793,176.51 317.127,176.343 318.5,176.5C 317.113,187.718 314.613,198.718 311,209.5C 310.161,210.624 308.994,211.291 307.5,211.5C 305.97,211.36 304.97,210.693 304.5,209.5 Z"/></g>
<g><path style="opacity:0.304" fill="#a47d9a" d="M 298.5,186.5 C 298.5,187.5 298.5,188.5 298.5,189.5C 297.503,189.47 296.836,189.97 296.5,191C 295.632,195.108 294.299,198.942 292.5,202.5C 292.754,196.15 294.254,190.15 297,184.5C 297.278,185.416 297.778,186.082 298.5,186.5 Z"/></g>
<g><path style="opacity:0.059" fill="#bea3bc" d="M 129.5,186.5 C 128.8,190.798 128.467,195.131 128.5,199.5C 127.84,198.036 127.507,196.369 127.5,194.5C 127.382,191.514 128.048,188.848 129.5,186.5 Z"/></g>
<g><path style="opacity:0.997" fill="#85547c" d="M 191.5,203.5 C 190.928,201.745 190.094,200.078 189,198.5C 188.722,199.416 188.222,200.082 187.5,200.5C 189.616,192.317 192.616,184.484 196.5,177C 198.403,176.226 200.07,176.56 201.5,178C 197.977,186.528 194.643,195.028 191.5,203.5 Z"/></g>
<g><path style="opacity:0.482" fill="#936f8e" d="M 244.5,177.5 C 244.833,177.5 245.167,177.5 245.5,177.5C 245.5,183.5 245.5,189.5 245.5,195.5C 245.5,200.5 245.5,205.5 245.5,210.5C 252.532,210.83 259.532,210.497 266.5,209.5C 266.137,208.817 265.804,208.15 265.5,207.5C 268.173,207.684 268.84,208.851 267.5,211C 259.841,211.5 252.174,211.666 244.5,211.5C 244.5,200.167 244.5,188.833 244.5,177.5 Z"/></g>
<g><path style="opacity:1" fill="#916689" d="M 117.5,208.5 C 117.001,211.389 115.501,212.056 113,210.5C 112.667,203.833 112.333,197.167 112,190.5C 109.316,197.381 106.149,204.048 102.5,210.5C 101.232,211.428 99.8989,211.595 98.5,211C 97.2423,209.259 96.2423,207.426 95.5,205.5C 97.1494,206.649 98.6494,207.982 100,209.5C 102.496,207.848 103.996,205.515 104.5,202.5C 104.767,200.024 104.101,199.357 102.5,200.5C 102.343,199.127 102.51,197.793 103,196.5C 105.128,193.22 106.962,189.887 108.5,186.5C 108.021,189.064 107.355,191.564 106.5,194C 106.833,194.167 107.167,194.333 107.5,194.5C 109.244,191.415 111.078,188.415 113,185.5C 113.5,193.493 113.666,201.493 113.5,209.5C 114.959,209.567 116.292,209.234 117.5,208.5 Z"/></g>
<g><path style="opacity:0.976" fill="#662c5c" d="M 186.5,202.5 C 186.328,201.508 186.662,200.842 187.5,200.5C 188.222,200.082 188.722,199.416 189,198.5C 190.094,200.078 190.928,201.745 191.5,203.5C 190.624,203.369 189.957,203.702 189.5,204.5C 189.29,208.38 187.29,210.047 183.5,209.5C 183.771,207.62 183.104,206.287 181.5,205.5C 179.648,193.908 180.815,193.574 185,204.5C 185.333,204.833 185.667,205.167 186,205.5C 186.483,204.552 186.649,203.552 186.5,202.5 Z"/></g>
<g><path style="opacity:0.071" fill="#9b7494" d="M 186.5,202.5 C 186.649,203.552 186.483,204.552 186,205.5C 185.667,205.167 185.333,204.833 185,204.5C 180.815,193.574 179.648,193.908 181.5,205.5C 179.654,202.46 178.321,199.127 177.5,195.5C 178.5,195.5 179.5,195.5 180.5,195.5C 178.952,189.187 176.618,183.187 173.5,177.5C 172.481,179.46 172.481,181.46 173.5,183.5C 172.883,183.389 172.383,183.056 172,182.5C 171.505,180.527 171.338,178.527 171.5,176.5C 173.144,176.286 174.644,176.62 176,177.5C 179.428,185.974 182.928,194.308 186.5,202.5 Z"/></g>
<g><path style="opacity:0.941" fill="#6a3763" d="M 249.5,191.5 C 255.167,191.5 260.833,191.5 266.5,191.5C 266.5,192.5 266.5,193.5 266.5,194.5C 260.833,194.5 255.167,194.5 249.5,194.5C 249.5,198.833 249.5,203.167 249.5,207.5C 254.833,207.5 260.167,207.5 265.5,207.5C 265.804,208.15 266.137,208.817 266.5,209.5C 259.532,210.497 252.532,210.83 245.5,210.5C 245.5,205.5 245.5,200.5 245.5,195.5C 246.321,198.641 246.821,201.975 247,205.5C 247.203,201.579 247.703,197.745 248.5,194C 253.833,193.667 259.167,193.333 264.5,193C 258.742,192.857 253.742,192.357 249.5,191.5 Z"/></g>
<g><path style="opacity:0.842" fill="#6c3664" d="M 117.5,208.5 C 116.292,209.234 114.959,209.567 113.5,209.5C 113.666,201.493 113.5,193.493 113,185.5C 111.078,188.415 109.244,191.415 107.5,194.5C 107.167,194.333 106.833,194.167 106.5,194C 107.355,191.564 108.021,189.064 108.5,186.5C 108.895,183.314 109.895,180.314 111.5,177.5C 113.353,176.24 115.186,176.24 117,177.5C 117.5,187.828 117.666,198.161 117.5,208.5 Z"/></g>
<g><path style="opacity:0.996" fill="#6d3664" d="M 298.5,186.5 C 299.396,187.506 300.062,187.506 300.5,186.5C 302.53,190.916 304.197,195.583 305.5,200.5C 307.128,202.656 308.128,202.656 308.5,200.5C 309.114,197.692 310.281,195.025 312,192.5C 312.296,198.359 311.296,204.026 309,209.5C 307.51,210.728 306.01,210.728 304.5,209.5C 301.9,203.121 299.9,196.454 298.5,189.5C 298.5,188.5 298.5,187.5 298.5,186.5 Z"/></g>
<g><path style="opacity:0.416" fill="#aa8aa7" d="M 191.5,203.5 C 191.411,207.705 189.411,210.371 185.5,211.5C 182.912,210.491 181.578,208.491 181.5,205.5C 183.104,206.287 183.771,207.62 183.5,209.5C 187.29,210.047 189.29,208.38 189.5,204.5C 189.957,203.702 190.624,203.369 191.5,203.5 Z"/></g>
<g><path style="opacity:1" fill="#86587e" d="M 137.5,178.5 C 137.62,179.586 138.287,180.253 139.5,180.5C 142.657,179.313 145.657,179.313 148.5,180.5C 139.072,180.091 133.739,184.591 132.5,194C 134.894,206.198 141.894,210.031 153.5,205.5C 155.048,205.821 155.715,206.821 155.5,208.5C 147.256,214.095 139.423,213.429 132,206.5C 130.441,204.783 129.608,202.783 129.5,200.5C 130.117,200.611 130.617,200.944 131,201.5C 129.121,193.837 130.954,187.17 136.5,181.5C 136.043,180.702 135.376,180.369 134.5,180.5C 134.973,179.094 135.973,178.427 137.5,178.5 Z"/></g>
<g><path style="opacity:0.949" fill="#714069" d="M 223.5,180.5 C 223.173,189.682 223.507,198.682 224.5,207.5C 227.5,207.5 230.5,207.5 233.5,207.5C 233.5,208.833 233.5,210.167 233.5,211.5C 225.5,211.5 217.5,211.5 209.5,211.5C 209.67,210.178 209.337,209.011 208.5,208C 211.817,207.502 215.15,207.335 218.5,207.5C 218.833,207.5 219.167,207.5 219.5,207.5C 220.5,207.5 221.5,207.5 222.5,207.5C 222.173,198.318 222.507,189.318 223.5,180.5 Z"/></g>
</svg>
